<svg width="48" height="48" viewBox="0 0 48 48" fill="none" xmlns="http://www.w3.org/2000/svg">
<rect x="0.5" y="0.5" width="47" height="47" rx="23.5" fill="#101111" stroke="white"/>
<path d="M22.4726 24.98L21.5126 23.36L25.3326 19.84H19.1326V18.04H27.9326V19.8L24.2326 23.22C25.286 23.22 26.2126 23.5666 27.0126 24.26C27.826 24.9533 28.2326 25.92 28.2326 27.16C28.2326 28.3066 27.8126 29.2866 26.9726 30.1C26.1326 30.9133 24.986 31.32 23.5326 31.32C22.106 31.32 20.9593 30.9266 20.0926 30.14C19.2393 29.34 18.7793 28.3733 18.7126 27.24L20.6326 26.8C20.6726 27.64 20.9593 28.32 21.4926 28.84C22.0393 29.3466 22.7126 29.6 23.5126 29.6C24.366 29.6 25.0326 29.3733 25.5126 28.92C26.006 28.4533 26.2526 27.88 26.2526 27.2C26.2526 26.4133 25.9926 25.8133 25.4726 25.4C24.9526 24.9866 24.3326 24.78 23.6126 24.78C23.226 24.78 22.846 24.8466 22.4726 24.98Z" fill="white"/>
</svg>
