<svg width="48" height="48" viewBox="0 0 48 48" fill="none" xmlns="http://www.w3.org/2000/svg">
<rect x="0.5" y="0.5" width="47" height="47" rx="23.5" fill="#101111" stroke="white"/>
<path d="M21.527 22.7L19.567 22.46C19.5537 22.34 19.547 22.1667 19.547 21.94C19.547 20.78 19.9537 19.7933 20.767 18.98C21.5804 18.1533 22.667 17.74 24.027 17.74C25.3737 17.74 26.4404 18.1267 27.227 18.9C28.0137 19.66 28.407 20.6 28.407 21.72C28.407 23.36 27.5937 24.6933 25.967 25.72L23.407 27.36C22.487 27.9467 21.9604 28.5533 21.827 29.18H28.487V31H19.407C19.4337 29.9067 19.6804 28.9467 20.147 28.12C20.627 27.2933 21.407 26.5333 22.487 25.84L24.647 24.44C25.8337 23.68 26.427 22.78 26.427 21.74C26.427 21.1 26.2137 20.56 25.787 20.12C25.3604 19.68 24.7604 19.46 23.987 19.46C23.1737 19.46 22.5537 19.7067 22.127 20.2C21.7004 20.6933 21.487 21.3333 21.487 22.12C21.487 22.24 21.5004 22.4333 21.527 22.7Z" fill="white"/>
</svg>
